<?xml version="1.0" encoding="utf-8"?>
<!-- Generator: Adobe Illustrator 22.1.0, SVG Export Plug-In . SVG Version: 6.00 Build 0)  -->
<svg version="1.1"
	 id="svg2" inkscape:version="0.48.1 " sodipodi:docname="Umbra Logo.svg" xmlns:cc="http://creativecommons.org/ns#" xmlns:dc="http://purl.org/dc/elements/1.1/" xmlns:inkscape="http://www.inkscape.org/namespaces/inkscape" xmlns:rdf="http://www.w3.org/1999/02/22-rdf-syntax-ns#" xmlns:sodipodi="http://sodipodi.sourceforge.net/DTD/sodipodi-0.dtd" xmlns:svg="http://www.w3.org/2000/svg"
	 xmlns="http://www.w3.org/2000/svg" xmlns:xlink="http://www.w3.org/1999/xlink" x="0px" y="0px" viewBox="0 0 664.5 207"
	 style="enable-background:new 0 0 664.5 207;" xml:space="preserve">
<style type="text/css">
	.st0{fill:url(#path85_1_);stroke:#000000;stroke-width:6;stroke-miterlimit:10;}
	.st1{fill:#323232;stroke:#000000;stroke-width:6;stroke-miterlimit:10;}
	.st2{fill:url(#path106_1_);stroke:#000000;stroke-width:6;stroke-miterlimit:10;}
	.st3{fill:url(#path113_1_);stroke:#000000;stroke-width:6;stroke-miterlimit:10;}
	.st4{fill:url(#path120_1_);stroke:#000000;stroke-width:6;stroke-miterlimit:10;}
	.st5{fill:url(#path141_1_);stroke:#000000;stroke-width:6;stroke-miterlimit:10;}
	.st6{fill:#C8C8C8;}
</style>
<sodipodi:namedview  bordercolor="#666666" borderopacity="1" gridtolerance="10" guidetolerance="10" id="namedview157" inkscape:current-layer="svg2" inkscape:cx="900" inkscape:cy="450" inkscape:pageopacity="0" inkscape:pageshadow="2" inkscape:window-height="480" inkscape:window-maximized="0" inkscape:window-width="640" inkscape:window-x="0" inkscape:window-y="0" inkscape:zoom="0.26666667" objecttolerance="10" pagecolor="#ffffff" showgrid="false">
	</sodipodi:namedview>
<g id="Layer_2_1_">
	
		<linearGradient id="path85_1_" gradientUnits="userSpaceOnUse" x1="762.1931" y1="-3172.4653" x2="977.248" y2="-3387.5205" gradientTransform="matrix(0.6 0 0 -0.6 -426.6431 -1869.3522)">
		<stop  offset="0" style="stop-color:#D4D4D4"/>
		<stop  offset="1" style="stop-color:#8F8F8F"/>
	</linearGradient>
	<path id="path85" class="st0" d="M81.9,197.4C-53.3,193.8,46.1,18.7,46.1,18.7S80,214,161.8,17.5
		C161.8,17.5,215.9,202.7,81.9,197.4z"/>
	<path id="path92" class="st1" d="M45.4,116.2c0,0,18.8,24.8,27.8,29.1c9.1,4.3,5.5,17.6-13.9,17s-28.4-23.6-27.8-28.4
		C32,128.9,32.6,100.7,45.4,116.2z"/>
	<path id="path99" class="st1" d="M144.3,111.1c-6.4,1.1-25.6,22.4-25.6,22.4s-25.1,23.3-16.2,28.2c23.3,12.8,52.7-30.9,52.7-30.9
		S165.2,112.1,144.3,111.1z"/>
	
		<linearGradient id="path106_1_" gradientUnits="userSpaceOnUse" x1="-1900.9185" y1="7589.9443" x2="-2032.7543" y2="7721.7798" gradientTransform="matrix(-0.6 0 0 0.6 -586.9038 -4464.8169)">
		<stop  offset="0" style="stop-color:#D4D4D4"/>
		<stop  offset="1" style="stop-color:#858585"/>
	</linearGradient>
	<path id="path106" class="st2" d="M606.7,65.9c94.1,12.3,17.7,110.7,17.7,110.7S606,50,551.7,185.3
		C551.7,185.3,523.5,55.1,606.7,65.9z"/>
	
		<linearGradient id="path113_1_" gradientUnits="userSpaceOnUse" x1="-1310.8502" y1="7599.5459" x2="-1454.4193" y2="7743.1147" gradientTransform="matrix(-0.6 0 0 0.6 -586.9038 -4464.8169)">
		<stop  offset="0" style="stop-color:#D4D4D4"/>
		<stop  offset="1" style="stop-color:#858585"/>
	</linearGradient>
	<path id="path113" class="st3" d="M256.1,72.4c92,7.5,30.1,108.2,30.1,108.2s3.5-35.8-14-52.9c-5.2-8.8-26.8,26.9-26.8,26.9
		s-15.6-36.2-23.6-26.6c-15.9,9.2-15.2,30.5-28.5,63.7C194.7,199.1,160.8,63.5,256.1,72.4z"/>
	
		<linearGradient id="path120_1_" gradientUnits="userSpaceOnUse" x1="1208.9337" y1="-3243.3914" x2="1373.1177" y2="-3407.5754" gradientTransform="matrix(0.6 0 0 -0.6 -426.6431 -1869.3522)">
		<stop  offset="0" style="stop-color:#D4D4D4"/>
		<stop  offset="1" style="stop-color:#858585"/>
	</linearGradient>
	<path id="path120" class="st4" d="M309.2,66.2c0,0,74-7.1,91.4,18.4s-34.4,44.2-34.4,44.2s36.3,11.2,38,35.1
		c1.6,23.9-91.5,21.3-91.5,21.3s23.5-9.4,23.9-20.8c0.2-5.9-2.3-82.3-2.3-82.3C333.4,74.5,324.7,69.2,309.2,66.2z"/>
	<path id="path127" class="st1" d="M353.4,95.2c0,0,13.4-16.2,25.3,0C390.7,111.4,340.3,109.2,353.4,95.2z"/>
	<path id="path134" class="st1" d="M354.2,156.3c0,0,14.7-15.9,27.8,0S339.8,170.1,354.2,156.3z"/>
	
		<linearGradient id="path141_1_" gradientUnits="userSpaceOnUse" x1="1405.5142" y1="-3231.811" x2="1593.3475" y2="-3419.6443" gradientTransform="matrix(0.6 0 0 -0.6 -426.6431 -1869.3522)">
		<stop  offset="0" style="stop-color:#D4D4D4"/>
		<stop  offset="1" style="stop-color:#858585"/>
	</linearGradient>
	<path id="path141" class="st5" d="M415.8,70.6c0,0,90.2-22.1,109.2,23.8c5.8,21.8-20.3,27.4-20.3,27.4s34.7,31.8,22,63.3
		c0,0-21-31.8-47.8-36.9c-16.1,2.1-34.7,36.9-34.7,36.9s6.2-77.2,0-97.9C444.1,87.2,442.3,76,415.8,70.6z"/>
	<path id="path148" class="st1" d="M466.7,96.1c0,0,14.9-18.1,28.3,0C508.3,114.1,452,111.7,466.7,96.1z"/>
	<path id="path155" class="st1" d="M583.5,94c0,0,14.6-17.7,27.7,0C624.2,111.7,569.2,109.3,583.5,94z"/>
</g>
<g>
	<g>
		<path class="st6" d="M635.8,49.7h11v2.1h-11V49.7z M640.2,51h2.2v14.3h-2.2V51z"/>
		<path class="st6" d="M659.8,49.7h2.1v15.6h-2.1V53.6l0.1,0.7l-3.8,8.8h-1.5l-3.8-8.6l0.1-0.9v11.7h-2.1V49.7h2.1l4.6,10.3
			L659.8,49.7z"/>
	</g>
</g>
</svg>
